<svg width="132" height="31" viewBox="0 0 132 31" fill="none" xmlns="http://www.w3.org/2000/svg">
<g clip-path="url(#clip0)">
<path d="M45.9897 8.962C47.1233 8.91528 48.2401 9.25228 49.1639 9.9199C49.5873 10.2637 49.9219 10.7065 50.1393 11.2102C50.3566 11.714 50.45 12.2637 50.4116 12.8122C50.4481 13.6601 50.1942 14.4946 49.693 15.1744C49.1957 15.7961 48.5239 16.2502 47.7664 16.4764L50.537 21.3682C50.5707 21.4312 50.5895 21.5012 50.5921 21.5728C50.5911 21.681 50.5482 21.7845 50.4727 21.861C50.3972 21.9376 50.2951 21.981 50.1884 21.982H49.4025C49.2373 21.9838 49.0751 21.9374 48.9353 21.8483C48.7954 21.7593 48.6837 21.6314 48.6135 21.4798L45.953 16.7399H42.7971V21.4829C42.7955 21.6156 42.7428 21.7424 42.6503 21.8362C42.5577 21.9301 42.4326 21.9835 42.3017 21.9851H41.5494C41.4186 21.9835 41.2935 21.9301 41.2009 21.8362C41.1083 21.7424 41.0556 21.6156 41.054 21.4829V9.4642C41.0556 9.33151 41.1083 9.2047 41.2009 9.11087C41.2935 9.01704 41.4186 8.96361 41.5494 8.962H45.9897ZM45.898 15.0628C47.745 15.0628 48.6685 14.3136 48.6685 12.8153C48.6966 12.5011 48.6476 12.1847 48.526 11.8943C48.4044 11.6038 48.2138 11.3484 47.9713 11.1506C47.3489 10.7671 46.6246 10.5884 45.898 10.6391H42.7971V15.0659L45.898 15.0628ZM56.4298 12.124C57.0062 12.0948 57.5819 12.1928 58.1173 12.4112C58.6527 12.6295 59.1349 12.9631 59.5307 13.3888C60.3291 14.3466 60.7361 15.5777 60.6683 16.8298V17.332C60.6667 17.4647 60.614 17.5915 60.5214 17.6853C60.4289 17.7792 60.3038 17.8326 60.1729 17.8342H53.8611V17.9458C53.8533 18.3005 53.9149 18.6533 54.0425 18.9838C54.17 19.3142 54.3609 19.6157 54.6042 19.8709C54.8471 20.105 55.1338 20.2873 55.4473 20.4071C55.7609 20.5269 56.095 20.5817 56.4298 20.5684C56.9154 20.5915 57.4003 20.5091 57.8518 20.3266C58.196 20.1595 58.5045 19.9257 58.7601 19.6384C58.8366 19.5553 58.9265 19.4861 59.0261 19.4338C59.128 19.3924 59.2375 19.3734 59.3472 19.378H59.8976C59.9656 19.3761 60.0332 19.3883 60.0963 19.4139C60.1594 19.4395 60.2167 19.4779 60.2646 19.5268C60.3114 19.5717 60.3474 19.6269 60.3697 19.6882C60.3919 19.7496 60.4 19.8152 60.393 19.8802C60.316 20.2705 60.1278 20.6294 59.8518 20.9125C59.4773 21.3085 59.0195 21.6137 58.5124 21.8053C57.848 22.0622 57.1407 22.1854 56.4298 22.168C55.6964 22.1811 54.9733 21.9914 54.3381 21.6193C53.7275 21.2546 53.224 20.7313 52.8795 20.1034C52.5111 19.4337 52.2889 18.6915 52.2281 17.9272C52.2036 17.5552 52.1914 17.271 52.1914 17.0747C52.1914 16.8784 52.2036 16.5942 52.2281 16.2222C52.2907 15.4875 52.5132 14.7761 52.8795 14.139C53.2295 13.5288 53.7301 13.0214 54.332 12.6665C54.9703 12.2974 55.6951 12.11 56.4298 12.124ZM59.02 16.2749V16.2191C59.0351 15.8834 58.98 15.5483 58.8582 15.2357C58.7365 14.9232 58.5509 14.6403 58.3136 14.4056C57.7996 13.9366 57.1236 13.6926 56.4329 13.7267C55.7654 13.7107 55.1177 13.9573 54.6256 14.4149C54.3792 14.6434 54.1836 14.9225 54.0518 15.2336C53.92 15.5447 53.855 15.8806 53.8611 16.2191V16.2749H59.02ZM64.5611 13.3919C64.8347 13.0265 65.1715 12.7146 65.555 12.4712C66.0036 12.2214 66.5116 12.1024 67.0229 12.1271C67.6243 12.0734 68.2281 12.1973 68.7615 12.4839C69.295 12.7705 69.7351 13.2075 70.0289 13.7422C70.3444 13.26 70.7571 12.8511 71.2399 12.5425C71.7842 12.2406 72.3998 12.0959 73.0197 12.124C73.5176 12.0849 74.0178 12.1637 74.4805 12.3542C74.9433 12.5446 75.3561 12.8415 75.6863 13.2214C76.3191 14.1251 76.6268 15.2216 76.5578 16.3276V21.4798C76.5562 21.6125 76.5035 21.7393 76.411 21.8331C76.3184 21.927 76.1933 21.9804 76.0624 21.982H75.3805C75.2496 21.9804 75.1245 21.927 75.0319 21.8331C74.9394 21.7393 74.8867 21.6125 74.8851 21.4798V16.5136C74.8851 14.6536 74.1634 13.7236 72.72 13.7236C72.4245 13.7104 72.1299 13.7636 71.8571 13.8794C71.5843 13.9951 71.3401 14.1706 71.142 14.3932C70.7118 14.961 70.5028 15.6694 70.5549 16.3834V21.4798C70.5533 21.6125 70.5006 21.7393 70.408 21.8331C70.3155 21.927 70.1904 21.9804 70.0595 21.982H69.3806C69.2497 21.9804 69.1246 21.927 69.0321 21.8331C68.9395 21.7393 68.8868 21.6125 68.8852 21.4798V16.5136C68.8852 14.6536 68.1635 13.7236 66.7201 13.7236C66.4247 13.7104 66.13 13.7636 65.8572 13.8794C65.5844 13.9951 65.3402 14.1706 65.1422 14.3932C64.7119 14.961 64.5029 15.6694 64.555 16.3834V21.4798C64.5534 21.6125 64.5007 21.7393 64.4082 21.8331C64.3156 21.927 64.1905 21.9804 64.0596 21.982H63.3807C63.2499 21.9804 63.1248 21.927 63.0322 21.8331C62.9396 21.7393 62.8869 21.6125 62.8853 21.4798V12.8122C62.8869 12.6795 62.9396 12.5527 63.0322 12.4589C63.1248 12.365 63.2499 12.3116 63.3807 12.31H64.0657C64.1966 12.3116 64.3217 12.365 64.4143 12.4589C64.5069 12.5527 64.5596 12.6795 64.5611 12.8122V13.3919ZM87.475 16.2749C87.4995 16.5477 87.5117 16.8453 87.5117 17.1677C87.5117 17.4653 87.4995 17.7495 87.475 18.0202C87.4221 19.154 86.9621 20.229 86.1814 21.0427C85.3249 21.7696 84.2435 22.1679 83.1265 22.1679C82.0094 22.1679 80.928 21.7696 80.0715 21.0427C79.2909 20.229 78.8308 19.154 78.7779 18.0202C78.7657 17.8838 78.7596 17.5996 78.7596 17.1677C78.7596 16.7089 78.7657 16.4113 78.7779 16.2749C78.8195 15.1403 79.2775 14.0624 80.0623 13.2524C80.9223 12.5254 82.0067 12.1272 83.1265 12.1272C84.2463 12.1272 85.3306 12.5254 86.1906 13.2524C86.9754 14.0624 87.4334 15.1403 87.475 16.2749ZM85.8053 16.3679C85.7667 15.6582 85.4918 14.9828 85.0255 14.4521C84.5004 13.9845 83.8254 13.7267 83.1265 13.7267C82.4276 13.7267 81.7525 13.9845 81.2274 14.4521C80.7611 14.9828 80.4862 15.6582 80.4476 16.3679C80.4354 16.5167 80.4293 16.7833 80.4293 17.1677C80.4293 17.5397 80.4354 17.7939 80.4476 17.9303C80.4862 18.64 80.7611 19.3154 81.2274 19.8461C81.7525 20.3137 82.4276 20.5715 83.1265 20.5715C83.8254 20.5715 84.5004 20.3137 85.0255 19.8461C85.4918 19.3154 85.7667 18.64 85.8053 17.9303C85.8298 17.6575 85.842 17.4033 85.842 17.1677C85.842 16.9321 85.8298 16.6645 85.8053 16.3648V16.3679ZM92.1721 18.7301C92.1445 19.1638 92.2572 19.5948 92.4932 19.9577C92.6509 20.1195 92.8434 20.2423 93.0555 20.3165C93.2677 20.3907 93.4938 20.4143 93.7164 20.3855H94.6889C94.8198 20.3871 94.9449 20.4405 95.0374 20.5344C95.13 20.6282 95.1827 20.755 95.1843 20.8877V21.4829C95.1827 21.6156 95.13 21.7424 95.0374 21.8362C94.9449 21.9301 94.8198 21.9835 94.6889 21.9851H93.5299C93.1114 22.0215 92.6902 21.9664 92.2945 21.8236C91.8988 21.6808 91.538 21.4536 91.2364 21.1574C90.7025 20.469 90.4408 19.6036 90.5024 18.7301V13.9096H89.1416C89.0107 13.908 88.8856 13.8546 88.7931 13.7607C88.7005 13.6669 88.6478 13.5401 88.6462 13.4074V12.8122C88.6478 12.6795 88.7005 12.5527 88.7931 12.4589C88.8856 12.365 89.0107 12.3116 89.1416 12.31H90.5024V9.2782C90.504 9.14551 90.5567 9.0187 90.6493 8.92487C90.7419 8.83104 90.867 8.77761 90.9978 8.776H91.6767C91.8076 8.77761 91.9327 8.83104 92.0253 8.92487C92.1178 9.0187 92.1705 9.14551 92.1721 9.2782V12.31H94.5024C94.6332 12.3116 94.7583 12.365 94.8509 12.4589C94.9435 12.5527 94.9962 12.6795 94.9977 12.8122V13.4074C94.9962 13.5401 94.9435 13.6669 94.8509 13.7607C94.7583 13.8546 94.6332 13.908 94.5024 13.9096H92.1721V18.7301ZM100.777 12.124C101.354 12.0948 101.93 12.1928 102.465 12.4112C103 12.6295 103.482 12.9631 103.878 13.3888C104.677 14.3466 105.084 15.5777 105.016 16.8298V17.332C105.014 17.4647 104.962 17.5915 104.869 17.6853C104.776 17.7792 104.651 17.8326 104.52 17.8342H98.2087V17.9458C98.2008 18.3006 98.2624 18.6534 98.39 18.9838C98.5176 19.3143 98.7085 19.6158 98.9518 19.8709C99.1947 20.105 99.4814 20.2873 99.7949 20.4071C100.109 20.5269 100.443 20.5817 100.777 20.5684C101.263 20.5915 101.748 20.5091 102.199 20.3266C102.544 20.1595 102.852 19.9257 103.108 19.6384C103.184 19.5553 103.274 19.4861 103.374 19.4338C103.476 19.3924 103.585 19.3734 103.695 19.378H104.245C104.313 19.3761 104.381 19.3883 104.444 19.4139C104.507 19.4395 104.564 19.4779 104.612 19.5268C104.659 19.5717 104.695 19.6269 104.717 19.6882C104.74 19.7496 104.748 19.8152 104.741 19.8802C104.664 20.2705 104.475 20.6294 104.199 20.9125C103.825 21.3085 103.367 21.6137 102.86 21.8053C102.196 22.0622 101.488 22.1854 100.777 22.168C100.044 22.1811 99.3209 21.9914 98.6857 21.6193C98.0751 21.2546 97.5716 20.7313 97.2271 20.1034C96.8587 19.4337 96.6365 18.6915 96.5757 17.9272C96.5512 17.5552 96.539 17.271 96.539 17.0747C96.539 16.8784 96.5512 16.5942 96.5757 16.2222C96.6383 15.4875 96.8608 14.7761 97.2271 14.139C97.5771 13.5288 98.0777 13.0214 98.6796 12.6665C99.3179 12.2974 100.043 12.11 100.777 12.124ZM103.361 16.2749V16.2191C103.377 15.8834 103.321 15.5483 103.2 15.2357C103.078 14.9232 102.892 14.6403 102.655 14.4056C102.141 13.9366 101.465 13.6926 100.774 13.7267C100.107 13.7107 99.4591 13.9573 98.9671 14.4149C98.7207 14.6434 98.5251 14.9225 98.3933 15.2336C98.2615 15.5447 98.1965 15.8806 98.2026 16.2191V16.2749H103.361ZM118.184 9.24333C118.315 9.24493 118.44 9.29836 118.532 9.3922C118.625 9.48603 118.678 9.61283 118.679 9.74553V21.758C118.678 21.8907 118.625 22.0175 118.532 22.1114C118.44 22.2052 118.315 22.2586 118.184 22.2602H116.698C116.567 22.2586 116.442 22.2052 116.349 22.1114C116.256 22.0175 116.204 21.8907 116.202 21.758V16.8507H110.661V21.7611C110.659 21.8938 110.607 22.0206 110.514 22.1145C110.422 22.2083 110.297 22.2617 110.166 22.2633H108.679C108.55 22.2652 108.424 22.2151 108.331 22.1238C108.282 22.0775 108.244 22.0211 108.219 21.9586C108.193 21.896 108.182 21.8287 108.184 21.7611V9.74553C108.186 9.61283 108.238 9.48603 108.331 9.3922C108.423 9.29836 108.549 9.24493 108.679 9.24333H110.166C110.297 9.24493 110.422 9.29836 110.514 9.3922C110.607 9.48603 110.659 9.61283 110.661 9.74553V14.5257H116.205V9.74553C116.207 9.61283 116.26 9.48603 116.352 9.3922C116.445 9.29836 116.57 9.24493 116.701 9.24333H118.184ZM126.477 9.05733C127.191 9.00785 127.907 9.106 128.582 9.34581C129.257 9.58563 129.877 9.96209 130.404 10.4523C131.33 11.4343 131.855 12.7361 131.872 14.0948C131.896 14.6632 131.908 15.1592 131.908 15.5828C131.908 16.1408 131.896 16.7546 131.872 17.4242C131.855 18.6969 131.395 19.9226 130.572 20.8838L131.948 22.8926C131.981 22.9424 132 23.0002 132.003 23.06V23.0972C132.005 23.1476 131.996 23.1978 131.977 23.2443C131.958 23.2909 131.929 23.3327 131.893 23.3669C131.818 23.4358 131.719 23.4725 131.618 23.4692H129.875C129.72 23.4667 129.571 23.4182 129.443 23.3297C129.327 23.2367 129.224 23.1271 129.138 23.0042L128.55 22.1517C127.878 22.3537 127.179 22.454 126.477 22.4493C125.764 22.4988 125.048 22.4007 124.372 22.1608C123.697 21.921 123.078 21.5446 122.551 21.0543C121.626 20.0773 121.101 18.7811 121.083 17.4273C121.058 16.7557 121.046 16.1419 121.046 15.5859C121.046 15.1643 121.058 14.6683 121.083 14.0979C121.103 12.7419 121.627 11.4434 122.551 10.4624C123.076 9.9693 123.695 9.59031 124.371 9.34868C125.046 9.10706 125.763 9.00791 126.477 9.05733ZM126.477 11.3823C125.719 11.346 124.978 11.6132 124.413 12.1263C123.871 12.6734 123.564 13.4156 123.56 14.1909C123.535 14.8109 123.523 15.3317 123.523 15.7533C123.523 16.1873 123.535 16.7143 123.56 17.3343C123.561 17.717 123.638 18.0956 123.784 18.4483C123.93 18.801 124.144 19.1209 124.413 19.3896C124.999 19.8652 125.727 20.1243 126.477 20.1243C127.228 20.1243 127.956 19.8652 128.541 19.3896C128.81 19.1209 129.024 18.801 129.17 18.4483C129.317 18.0956 129.393 17.717 129.395 17.3343C129.419 17.0243 129.431 16.4973 129.431 15.7533C129.431 15.0217 129.419 14.5009 129.395 14.1909C129.39 13.4156 129.083 12.6734 128.541 12.1263C127.976 11.6132 127.235 11.346 126.477 11.3823Z" fill="#263337"/>
<path d="M26.7578 3.875H24.4643C24.4643 3.46391 24.3032 3.06967 24.0164 2.77898C23.7297 2.4883 23.3408 2.325 22.9352 2.325H3.82254C3.41702 2.325 3.02811 2.4883 2.74136 2.77898C2.45462 3.06967 2.29352 3.46391 2.29352 3.875V18.6C2.29352 19.0111 2.45462 19.4053 2.74136 19.696C3.02811 19.9867 3.41702 20.15 3.82254 20.15H22.9352C23.3408 20.15 23.7297 19.9867 24.0164 19.696C24.3032 19.4053 24.4643 19.0111 24.4643 18.6V10.85H26.7578V18.6C26.7578 19.6277 26.3551 20.6133 25.6382 21.34C24.9213 22.0667 23.949 22.475 22.9352 22.475H16.0547V24.025C16.0547 24.2305 15.9741 24.4277 15.8308 24.573C15.6874 24.7183 15.4929 24.8 15.2902 24.8H10.7031C10.5004 24.8 10.3059 24.7183 10.1625 24.573C10.0192 24.4277 9.93861 24.2305 9.93861 24.025V22.475H3.82254C2.80874 22.475 1.83646 22.0667 1.1196 21.34C0.402731 20.6133 0 19.6277 0 18.6L0 3.875C0 2.84729 0.402731 1.86166 1.1196 1.13496C1.83646 0.408258 2.80874 0 3.82254 0L22.9352 0C23.949 0 24.9213 0.408258 25.6382 1.13496C26.3551 1.86166 26.7578 2.84729 26.7578 3.875Z" fill="url(#paint0_linear)"/>
<path fill-rule="evenodd" clip-rule="evenodd" d="M5.35156 24.7999H7.64509C7.64509 25.211 7.80618 25.6053 8.09293 25.896C8.37967 26.1866 8.76858 26.35 9.1741 26.35H28.2868C28.6923 26.35 29.0812 26.1866 29.368 25.896C29.6547 25.6053 29.8158 25.211 29.8158 24.7999V10.075C29.8158 9.66387 29.6547 9.26962 29.368 8.97894C29.0812 8.68825 28.6923 8.52495 28.2868 8.52495H9.1741C8.76858 8.52495 8.37967 8.68825 8.09293 8.97894C7.80618 9.26962 7.64509 9.66387 7.64509 10.075V17.825H5.35156V10.075C5.35156 9.04724 5.75429 8.06162 6.47116 7.33491C7.18802 6.60821 8.1603 6.19995 9.1741 6.19995H28.2868C29.3006 6.19995 30.2729 6.60821 30.9898 7.33491C31.7066 8.06162 32.1094 9.04724 32.1094 10.075V24.7999C32.1094 25.8277 31.7066 26.8133 30.9898 27.54C30.2729 28.2667 29.3006 28.6749 28.2868 28.6749H21.4062V30.225C21.4062 30.4305 21.3257 30.6276 21.1823 30.773C21.0389 30.9183 20.8445 31 20.6417 31H16.0547C15.8519 31 15.6575 30.9183 15.5141 30.773C15.3707 30.6276 15.2902 30.4305 15.2902 30.225V28.6749H9.1741C8.1603 28.6749 7.18802 28.2667 6.47116 27.54C5.75429 26.8133 5.35156 25.8277 5.35156 24.7999Z" fill="url(#paint1_linear)"/>
</g>
<defs>
<linearGradient id="paint0_linear" x1="26.5972" y1="22.6424" x2="1.85731" y2="0.330644" gradientUnits="userSpaceOnUse">
<stop stop-color="#11C7FF"/>
<stop offset="1" stop-color="#0062E1"/>
</linearGradient>
<linearGradient id="paint1_linear" x1="32.1094" y1="28.9664" x2="7.04387" y2="6.35737" gradientUnits="userSpaceOnUse">
<stop stop-color="#FF0060"/>
<stop offset="1" stop-color="#FF39C3"/>
</linearGradient>
<clipPath id="clip0">
<rect width="132" height="31" fill="white"/>
</clipPath>
</defs>
</svg>
