<svg id="logo"
    className="mx-auto h-12 w-auto" width="132" height="30" viewBox="0 0 132 30" fill="none" xmlns="http://www.w3.org/2000/svg">
  <g clip-path="url(#clip0)">
  <path id="same" class="logo-purple" d="M44.7131 20.98C46.0465 20.98 47.0665 20.68 47.7731 20.08C48.3598 19.6 48.6531 18.9733 48.6531 18.2C48.6531 17.6533 48.5398 17.2133 48.3131 16.88C48.0465 16.5067 47.5798 16.1733 46.9131 15.88C46.2465 15.5733 45.2665 15.26 43.9731 14.94C42.2531 14.5133 41.0598 13.9467 40.3931 13.24C39.8331 12.6533 39.5531 11.88 39.5531 10.92C39.5531 9.77338 40.0465 8.86672 41.0331 8.20005C41.9398 7.60005 43.1331 7.30005 44.6131 7.30005C46.2131 7.30005 47.5265 7.67338 48.5531 8.42005C49.4465 9.08672 49.9931 9.96005 50.1931 11.04H48.5731C48.4131 10.2267 47.9531 9.60672 47.1931 9.18005C46.5265 8.80672 45.6731 8.62005 44.6331 8.62005C43.3931 8.62005 42.4731 8.86005 41.8731 9.34005C41.3798 9.72672 41.1331 10.2267 41.1331 10.84C41.1331 11.5867 41.4198 12.16 41.9931 12.56C42.5531 12.9467 43.5798 13.3267 45.0731 13.7C47.1265 14.22 48.5265 14.8533 49.2731 15.6C49.9131 16.2267 50.2331 17.0733 50.2331 18.14C50.2331 19.4067 49.6931 20.4333 48.6131 21.22C47.6131 21.94 46.3198 22.3 44.7331 22.3C43.0931 22.3 41.7465 21.88 40.6931 21.04C39.7731 20.3067 39.2131 19.34 39.0131 18.14H40.6331C40.7931 19.1 41.2798 19.8333 42.0931 20.34C42.7865 20.7667 43.6598 20.98 44.7131 20.98ZM53.9014 14.4H52.3414C52.4347 13.4 52.9081 12.6133 53.7614 12.04C54.5081 11.5467 55.4481 11.3 56.5814 11.3C57.9147 11.3 58.9547 11.66 59.7014 12.38C60.3281 13.0067 60.6414 13.8133 60.6414 14.8V22H59.4214L59.2414 20.42C58.4281 21.6733 57.2281 22.3 55.6414 22.3C54.4947 22.3 53.5947 21.9933 52.9414 21.38C52.3814 20.8467 52.1014 20.1667 52.1014 19.34C52.1014 18.34 52.4481 17.5667 53.1414 17.02C53.7681 16.5267 54.7414 16.1667 56.0614 15.94L59.1614 15.42V14.7C59.1614 13.9667 58.8947 13.4 58.3614 13C57.9081 12.6533 57.2947 12.48 56.5214 12.48C55.6947 12.48 55.0481 12.68 54.5814 13.08C54.1947 13.4133 53.9681 13.8533 53.9014 14.4ZM59.1614 18.24V16.6L56.4614 17.06C55.3547 17.26 54.5881 17.5533 54.1614 17.94C53.8281 18.2467 53.6614 18.6667 53.6614 19.2C53.6614 19.8267 53.9014 20.3 54.3814 20.62C54.7814 20.9 55.3214 21.04 56.0014 21.04C56.8814 21.04 57.6414 20.74 58.2814 20.14C58.8681 19.6067 59.1614 18.9733 59.1614 18.24ZM64.9627 22H63.4827V11.6H64.7027L64.8627 13.02C65.1827 12.4733 65.616 12.0533 66.1627 11.76C66.7093 11.4533 67.3227 11.3 68.0027 11.3C69.5227 11.3 70.5493 11.92 71.0827 13.16C71.7493 11.92 72.876 11.3 74.4627 11.3C75.6093 11.3 76.4827 11.6533 77.0827 12.36C77.6293 12.9867 77.9027 13.8467 77.9027 14.94V22H76.4027V15.06C76.4027 13.3933 75.656 12.56 74.1627 12.56C73.3093 12.56 72.616 12.9 72.0827 13.58C71.6427 14.14 71.4227 14.8133 71.4227 15.6V22H69.9427V15.06C69.9427 13.3933 69.196 12.56 67.7027 12.56C66.8627 12.56 66.176 12.8867 65.6427 13.54C65.1893 14.1133 64.9627 14.7933 64.9627 15.58V22ZM88.0483 19.08H89.6483C89.3683 20.12 88.7949 20.9333 87.9283 21.52C87.1549 22.04 86.2283 22.3 85.1483 22.3C83.5483 22.3 82.2949 21.7667 81.3883 20.7C80.5616 19.7267 80.1483 18.4267 80.1483 16.8C80.1483 14.9333 80.6683 13.5067 81.7083 12.52C82.5749 11.7067 83.6749 11.3 85.0083 11.3C86.5683 11.3 87.7683 11.8267 88.6083 12.88C89.3949 13.8933 89.7883 15.3133 89.7883 17.14H81.6683C81.7349 18.5133 82.1416 19.54 82.8883 20.22C83.5016 20.7667 84.2749 21.04 85.2083 21.04C85.9549 21.04 86.5949 20.84 87.1283 20.44C87.5816 20.08 87.8883 19.6267 88.0483 19.08ZM85.0283 12.5C84.0683 12.5 83.2949 12.8267 82.7083 13.48C82.1483 14.08 81.8149 14.9 81.7083 15.94H88.2683C88.2016 14.7533 87.8283 13.8533 87.1483 13.24C86.5883 12.7467 85.8816 12.5 85.0283 12.5Z" fill="#FFFF"/>
  <path id="surf" d="M97.6523 22.3C101.932 22.3 103.752 20.24 103.752 17.92C103.752 14.76 100.952 13.64 98.1923 13.04C96.1923 12.6 95.2722 12.24 95.2722 11.06C95.2722 10.18 95.8922 9.60005 97.5922 9.60005C99.0322 9.60005 100.092 10.22 100.252 11.3H103.392C103.012 8.80005 101.032 7.30005 97.6722 7.30005C93.8522 7.30005 91.8923 8.92005 91.8923 11.46C91.8923 14.5 94.3722 15.38 96.7722 15.94C98.8322 16.42 100.372 16.82 100.372 18.3C100.372 19.32 99.6323 19.96 97.6923 19.96C95.7923 19.96 94.7723 19.02 94.5523 17.76H91.3723C91.7723 20.52 93.9523 22.3 97.6523 22.3ZM105.248 11.6V18.36C105.248 20.9 106.668 22.3 109.048 22.3C110.388 22.3 111.468 21.78 112.188 20.9L112.488 22H115.068V11.6H111.948V17.84C111.948 19.28 111.108 20.1 110.028 20.1C108.968 20.1 108.368 19.52 108.368 18.48V11.6H105.248ZM120.382 22V17.68C120.382 15.36 121.522 14.14 122.762 14.14C123.302 14.14 123.722 14.22 124.102 14.34V11.44C123.822 11.36 123.362 11.3 122.922 11.3C121.682 11.3 120.762 11.96 120.202 13.18L119.862 11.6H117.262V22H120.382ZM131.912 7.64005C131.292 7.48005 130.532 7.30005 129.532 7.30005C127.252 7.30005 125.992 8.54005 125.992 10.84V11.6H124.412V13.76H125.992V22H129.112V13.76H131.392V11.6H129.112V10.72C129.112 9.96005 129.512 9.58005 130.352 9.58005C130.732 9.58005 131.272 9.68005 131.912 9.84005V7.64005Z" fill="#8B5CF6"/>
  <path id="hand" d="M24.4035 8.80465C24.44 8.83701 24.4877 8.85405 24.5366 8.85221C24.5855 8.85038 24.6319 8.8298 24.666 8.79478C25.401 8.04419 26.1433 7.36763 26.3613 6.24841C26.5581 5.12276 27.1858 4.11563 28.1125 3.43893C28.5996 3.09835 29.1633 2.88232 29.7536 2.80997C30.5032 2.72543 31.0534 3.3581 30.948 4.10594C30.7206 5.7317 30.4222 7.34858 30.1709 8.96678C29.9277 10.5394 29.6402 12.11 29.4965 13.6931C29.2932 15.9328 29.3022 18.2427 28.1857 20.2478C27.5454 21.398 26.8867 22.4275 26.5481 22.7415C25.842 23.396 24.8567 23.736 23.984 24.1125C23.5668 24.3019 23.0976 24.35 22.9394 23.7829C22.8014 23.2678 23.1788 23.0984 23.6053 22.9842C25.2192 22.5098 26.3517 21.4728 27.0601 19.971C27.791 18.3743 28.1793 16.6444 28.2 14.892C28.255 12.3958 28.5519 9.96975 29.2729 7.57744C29.5433 6.67683 29.6341 5.71733 29.7317 4.77769C29.7544 4.56535 29.686 4.13547 29.3872 4.02168C29.0884 3.90789 28.7396 4.22468 28.632 4.40549C28.2312 5.09292 27.8263 5.80623 27.5997 6.56174C27.0856 8.26433 25.8589 9.44446 24.7298 10.7039C24.4479 11.0198 24.1292 11.3037 23.8477 11.6211C23.4985 12.0124 23.2881 12.4441 23.5412 12.9811C23.5929 13.1236 23.619 13.2741 23.6183 13.4258C23.7323 14.9461 22.6376 15.897 21.3094 15.586C21.2662 15.5771 21.2213 15.5835 21.1824 15.6041C21.1434 15.6248 21.1129 15.6583 21.0962 15.6989C20.8945 16.1919 20.7466 16.7231 20.4354 17.1043C19.8683 17.7944 19.1483 17.7857 18.4415 17.2322C18.2432 17.0744 18.0438 16.9123 17.8889 16.777C17.8661 16.7588 17.8392 16.7461 17.8105 16.7402C17.7818 16.7342 17.7521 16.7351 17.7237 16.7427C17.6954 16.7503 17.6692 16.7644 17.6473 16.7839C17.6255 16.8034 17.6085 16.8278 17.5978 16.855C17.382 17.3362 17.2088 17.837 16.9007 18.2298C16.5249 18.7197 15.9434 18.7794 15.429 18.362C13.7568 17.0002 12.246 15.4897 11.0463 13.6849C10.824 13.3339 10.5308 13.0328 10.1853 12.8006C8.44875 11.715 6.69511 10.6511 4.92438 9.60874C4.31561 9.25232 3.59709 8.88808 3.03739 8.63328C2.68036 8.4653 2.44383 8.69462 2.66079 9.04436C2.75186 9.19704 2.8614 9.338 2.98699 9.46409C3.57503 10.0401 4.21743 10.5628 4.83886 11.1004C6.54659 12.5597 8.33925 13.9342 9.93507 15.5056C10.8211 16.3786 11.4315 17.5504 12.0815 18.6371C13.0319 20.2279 13.9858 21.8024 15.422 23.0227C16.8341 24.2169 18.3783 24.7399 20.3407 24.1861C20.4935 24.1452 20.6951 24.2804 20.8948 24.4083C21.0177 24.4886 21.0203 24.6321 21.0017 24.7782C20.9831 24.9243 20.8022 25.2272 20.6497 25.2696C19.962 25.4689 19.2459 25.5517 18.5313 25.5146C17.874 25.439 17.2246 25.308 16.5901 25.1229C14.5779 24.3732 13.322 22.8766 12.2002 21.1239C11.5289 20.0739 10.9654 18.9548 10.2828 17.9156C9.8255 17.2387 9.31004 16.6026 8.74222 16.0145C8.26307 15.5389 7.75579 15.0922 7.22308 14.6768C5.9839 13.627 4.71821 12.6122 3.49601 11.5501C2.85338 10.9978 2.25434 10.3972 1.70415 9.75355C1.26756 9.23623 1.07999 8.58859 1.52515 7.95597C1.97032 7.32335 2.66537 7.25653 3.28038 7.51978C4.28596 7.96209 5.26387 8.46394 6.20885 9.02263C7.3322 9.66921 8.42671 10.3654 9.65851 11.1256C9.68885 11.1445 9.72396 11.1545 9.75979 11.1543C9.79563 11.1542 9.83072 11.1439 9.861 11.1248C9.89128 11.1056 9.91553 11.0784 9.93092 11.0461C9.94632 11.0139 9.95224 10.978 9.94801 10.9426C9.8863 10.5668 9.83913 10.2801 9.80399 9.9917C9.59275 8.28341 10.7463 6.98175 12.4589 7.0269C12.8862 7.03802 13.1032 6.93955 13.343 6.56513C13.9224 5.65925 14.7601 5.09982 15.8847 5.04662C16.0698 5.03888 16.3185 5.00636 16.4252 4.88628C17.5678 3.60772 19.2235 3.91781 20.4425 5.03812C21.6616 6.15843 22.8279 7.3146 24.0195 8.45468C24.1412 8.57097 24.2664 8.68319 24.4035 8.80465ZM23.7767 9.88915C23.0463 9.17761 22.3764 8.50569 21.6835 7.85854C20.8492 7.07401 20.0337 6.24879 19.1105 5.57493C18.7668 5.32274 18.0674 5.27441 17.6733 5.45134C17.395 5.5771 17.1247 6.55369 17.2903 7.24752C17.6251 8.59822 18.2521 9.85919 19.1276 10.9426C20.0607 12.1427 21.3351 14.7215 22.0294 14.5354C22.3075 14.4609 22.4368 13.7268 22.3563 13.3855C22.2104 12.838 21.9894 12.3132 21.6997 11.826C21.1092 10.7342 20.4535 9.6785 19.8767 8.57993C19.6569 8.16118 19.1543 7.58399 19.8753 7.22952C20.6676 6.83885 20.7259 7.65605 20.9614 8.09234C21.5098 9.10854 22.0277 10.133 22.6167 11.2717L23.7767 9.88915ZM15.762 6.28297C15.1902 6.19269 14.0574 7.01887 14.197 7.82514C14.4552 9.30683 14.6348 10.9321 15.388 12.1711C16.2994 13.6685 17.7687 14.8319 19.0109 16.1259C19.1283 16.2495 19.2441 16.4139 19.5207 16.3398C19.5773 16.31 19.6276 16.2693 19.6684 16.2201C19.7093 16.171 19.74 16.1143 19.7588 16.0533C19.7775 15.9923 19.784 15.9283 19.7778 15.8649C19.7715 15.8015 19.7527 15.74 19.7225 15.684C19.4631 15.0711 19.2421 14.3626 18.7841 13.9286C17.5381 12.772 17.0584 11.3017 16.6845 9.7377C16.4094 8.60019 15.9971 6.31613 15.762 6.28297ZM16.1743 17.3822C16.4574 17.4723 16.2588 16.533 16.1119 16.2001C15.7463 15.3831 15.3794 14.5493 14.877 13.8154C13.8741 12.3549 13.4212 10.7114 13.0682 9.02711C12.8979 8.19958 12.5659 8.02024 11.7747 8.36872C11.1429 8.64813 10.8792 9.10187 10.9897 9.8058C11.2689 11.4882 11.8268 13.0462 13.0025 14.3192C13.9898 15.3838 15.1969 17.0765 16.1743 17.3822Z" fill="#8B5CF6"/>
  </g>
  <defs>
  <clipPath id="clip0">
  <rect width="131" height="30" fill="white" transform="translate(0.971436)"/>
  </clipPath>
  </defs>
  </svg>